# xmcd
#
# Track frame offsets:
# 150
# 10662
# 47270
# 65085
# 81480
# 90015
# 107107
# 119000
# 142370
# 155617
# 171582
# 188287
#
# Disc length: 3059 seconds
#
#
# Revision: 0
# Processed by: cddbd v1.4PL0 Copyright (c) Steve Scherf et al.
# Submitted via: FreeRIP 2.30 
#
DISCID=9e0bf10c
DTITLE=Sleepy LaBeef - Nothin' But the Truth
DYEAR=1987
DGENRE=Country
TTITLE0=Tore Up Over You
TTITLE1=Boogie at the Wayside Lounge
TTITLE2=How Do You Talk to a Baby?
TTITLE3=Boogie Woogie Country Man
TTITLE4=Milk Cow Blues
TTITLE5=Worried Man Blues
TTITLE6=Just Pickin'
TTITLE7=Let's Talk About Us
TTITLE8=Gunslinger
TTITLE9=My Toot-Toot
TTITLE10=Ring of Fire
TTITLE11=Medley
EXTD=
EXTT0=
EXTT1=
EXTT2=
EXTT3=
EXTT4=
EXTT5=
EXTT6=
EXTT7=
EXTT8=
EXTT9=
EXTT10=
EXTT11=
PLAYORDER=
